<svg xmlns="http://www.w3.org/2000/svg" viewBox="0 0 75 75"><g><path d="M0,0V75H75V0ZM45.52,39.15A33.3,33.3,0,0,1,48,41.61a6.94,6.94,0,0,1,.88,1.26c.34.66,0,1.38-.55,1.41H44.65a2.81,2.81,0,0,1-2.32-.94c-.51-.51-1-1.06-1.46-1.59a3.56,3.56,0,0,0-.65-.58.76.76,0,0,0-1.22.29,3.84,3.84,0,0,0-.38,1.7c0,.86-.3,1.08-1.16,1.12a9.27,9.27,0,0,1-5.21-1.12,11.57,11.57,0,0,1-3.51-3.28,44,44,0,0,1-4.61-8.23c-.3-.65-.08-1,.63-1q1.78,0,3.57,0a1.07,1.07,0,0,1,1,.74,22.22,22.22,0,0,0,2.41,4.48,4,4,0,0,0,.92,1,.55.55,0,0,0,.94-.27,3.05,3.05,0,0,0,.21-.94,13.92,13.92,0,0,0-.06-3.29,1.36,1.36,0,0,0-1.17-1.26c-.35-.07-.29-.2-.12-.39a1.28,1.28,0,0,1,1.11-.56h4.12c.65.13.79.42.88,1.07v4.57c0,.26.13,1,.58,1.17s.61-.17.83-.4A14.41,14.41,0,0,0,42.28,33c.28-.57.52-1.15.75-1.73a.89.89,0,0,1,.93-.64h4a2.11,2.11,0,0,1,.35,0c.66.12.85.4.64,1.06a10.08,10.08,0,0,1-1.58,2.73c-.66.91-1.36,1.79-2,2.71S44.77,38.42,45.52,39.15Z" fill="#fff"/></g></svg>
