<svg xmlns="http://www.w3.org/2000/svg" viewBox="0 0 75 75"><g><path d="M0,0V75H75V0ZM47.57,32.66c0,.21,0,.43,0,.66A14.69,14.69,0,0,1,25,45.69a10.08,10.08,0,0,0,1.24.07,10.36,10.36,0,0,0,6.39-2.2A5.21,5.21,0,0,1,27.8,40a4.58,4.58,0,0,0,1,.09,4.9,4.9,0,0,0,1.35-.17A5.18,5.18,0,0,1,26,34.81v-.05a5,5,0,0,0,2.33.63,5.15,5.15,0,0,1-1.58-6.89,14.58,14.58,0,0,0,10.63,5.39,4.94,4.94,0,0,1-.12-1.17,5.16,5.16,0,0,1,8.92-3.53,10.13,10.13,0,0,0,3.27-1.25,5.11,5.11,0,0,1-2.27,2.85,10.62,10.62,0,0,0,3-.81A10.44,10.44,0,0,1,47.57,32.66Z" fill="#fff"/></g></svg>
